<?xml version="1.0" encoding="utf-8"?>
<!-- Generator: Adobe Illustrator 26.0.3, SVG Export Plug-In . SVG Version: 6.00 Build 0)  -->
<svg version="1.1" id="Layer_1" xmlns="http://www.w3.org/2000/svg" xmlns:xlink="http://www.w3.org/1999/xlink" x="0px" y="0px"
	 viewBox="0 0 170 170" style="enable-background:new 0 0 170 170;" xml:space="preserve">
<style type="text/css">
	.st0{fill:#FE3622;}
	.st1{fill:#FE3723;}
	.st2{fill:#FE3824;}
	.st3{fill:#FE3B28;}
	.st4{fill:#FE412E;}
	.st5{fill:#FE412F;}
	.st6{fill:#FE422F;}
	.st7{fill:#FE4431;}
	.st8{fill:#FE4937;}
	.st9{fill:#FE4533;}
	.st10{fill:#FE4735;}
	.st11{fill:#FE4836;}
</style>
<g>
	<g>
		<path class="st0" d="M78.5,144.5c7.6-0.3,15.2-1.1,22.5-3.3c2.6-0.8,4.6-0.5,7,1c12.7,7.5,26.1,11.1,40.7,6.8
			c1.3-0.4,2.6-0.7,3.1,0.9c0.6,1.7-0.3,2.7-2.1,3.3c-9.9,3.1-19.7,2.5-29.4-0.6c-4.9-1.5-9.6-3.5-13.9-6.3
			c-1.7-1.2-3.4-1.2-5.3-0.7c-23,5.9-45.1,3.4-66.3-7.5c-8.8-4.5-15.7-11.4-23.1-17.6c-1.5-1.3-2-3-2.3-4.9c-0.6-4-0.6-8.1,0.5-11.9
			C15.9,84.2,21.5,64.6,29.5,46C34,35.6,40.6,26.5,50.4,20.3c6.2-3.9,12.9-5.9,20.2-5.3c0.2,0,0.5,0,0.7,0
			c8.7,0.8,20.3,18.2,17.5,26.3C86,49.9,75,53.7,66.4,49.2c-1.1-0.6-2-2.1-3.6-1.5c-2.5,1.1-5,2.3-7.3,3.7c-0.4,0.2-0.3,1.4-0.2,2.1
			c1.3,11.6,2.7,23.3,4,34.9c0.3,2.3,1.2,1.8,2.7,1c7.3-3.6,14.8-5.8,23.1-4c3.3,0.7,6.5,1.9,9.2,3.9c1.4,1,2.3,1.2,3.6-0.4
			c13.4-15.4,32.2-14.4,48.2-5.1c1.4,0.8,2.2,1.8,1.4,3.3c-0.9,1.6-2.3,1.1-3.6,0.4c-5.5-3-11.2-5.3-17.5-6
			c-10.2-1.1-18.5,2.6-25.3,10.1c-1.4,1.6-1.1,2.5,0.1,4c1.9,2.3,3.4,4.9,5.1,7.4c0.8,1.2,1.3,2.6-0.3,3.5c-1.6,0.9-2.6,0-3.3-1.4
			c-1.8-3.2-3.8-6.2-6.4-8.7c-8.2-8-18.3-9.4-29.7-4.3c-3.5,1.6-6.8,3.1-8,7.5c-0.9,3.2-3.8,5.1-6.9,6.4c-1.2,0.5-2.2,0.4-2.9-0.7
			c-0.7-1.2-0.3-2.4,0.8-2.8c6.9-2.9,6.4-8.6,5.6-14.5c-1.5-12-2.8-24-4.3-36c-0.4-2.9,0.8-3.5,3.2-4.7c6-3.1,11.3-4.7,17.8-0.6
			c4,2.5,8.3-0.5,11.5-3.9c3-3.2,1.8-6.4,0.4-9.7c-0.5-1.1-1.1-2.2-1.7-3.3c-6.6-11.6-12.8-13.6-25-8c-10.2,4.6-16.5,13-21.7,22.4
			c-2.6,4.7-4.9,9.5-6.4,14.7C24.4,74.7,17.6,89.9,13.9,106c-1.5,6.6,0.3,11.2,5.7,15.9c12.2,10.5,25.6,17.9,41.5,20.9
			C66.9,143.8,72.7,144.5,78.5,144.5z"/>
		<path class="st1" d="M70.9,134.9c-4.6-0.6-9-1.9-13.2-3.7c-6.6-2.9-12.4-6.7-17.4-11.9c-1.1-1.2-2.6-2.4-0.9-4.1
			c1.5-1.5,2.7-0.2,3.8,0.9c7.7,7.6,16.8,12.6,27.6,14.4c1.5,0.2,3.2,0.6,3,2.6C73.5,134.6,72.4,135.2,70.9,134.9z"/>
		<path class="st2" d="M143.3,137.8c-6.5-0.2-12.2-2.1-16.7-6.9c-1.2-1.2-2.8-2.7-1-4.4c1.8-1.7,2.8,0.2,3.9,1.3
			c4.3,4.5,9.6,5.9,15.6,5.7c1.8-0.1,4.6-1.2,4.7,1.9c0.1,2.8-2.8,2.1-4.6,2.5C144.6,137.9,144,137.8,143.3,137.8z"/>
		<path class="st3" d="M81,135.7c-1.7-0.1-3.6,0.1-3.8-2.1c-0.2-2.2,1.8-2.3,3.4-2.5c2.7-0.3,5.5-0.5,8.1-1c1.6-0.3,3.2-0.5,3.7,1.3
			c0.6,2.2-1.3,2.6-3,2.9C86.7,134.8,83.9,135.2,81,135.7z"/>
		<path class="st4" d="M130.3,28.8c-1.5,11.9-3,23.9-4.5,35.8c-0.5-0.1-1.1-0.1-1.6-0.2c1.5-11.9,3-23.9,4.4-35.8
			C129.2,28.7,129.8,28.7,130.3,28.8z"/>
		<path class="st5" d="M138.1,67.7c6.6-9.4,13.1-18.8,19.7-28.2c0.4,0.3,0.9,0.6,1.3,0.9c-6.6,9.4-13.2,18.8-19.7,28.2
			C139,68.3,138.5,68,138.1,67.7z"/>
		<path class="st6" d="M110.1,67.5c-1.5-0.2-1.7-1.3-2-2.1c-4-8.4-8-16.8-12-25.2c-0.4-0.8-1.6-1.9-0.3-2.5c1.3-0.6,1.3,1,1.7,1.8
			c4.1,8.5,8.2,17,12.2,25.5C110,65.6,110.7,66.3,110.1,67.5z"/>
		<path class="st7" d="M139.5,48.7c-1.6,5.7-3.3,11.4-6.6,16.5C134.4,59.5,136.1,53.8,139.5,48.7z"/>
		<path class="st8" d="M114.9,49.1c2,4.7,2.2,9.7,3,14.6c0.1,0.5-0.3,1.1-0.8,1c-0.4-0.1-0.8-0.6-0.9-1
			C115.7,58.9,114.3,54.1,114.9,49.1z"/>
		<path class="st9" d="M148.8,66.7c3.7-3.4,7.4-6.8,11.2-10.1c0.3,0.3,0.6,0.6,0.8,0.9c-3.2,3.8-7.3,6.8-11.1,10.1
			C148.9,67.8,148.7,67.5,148.8,66.7z"/>
		<path class="st10" d="M93.5,62.4c-2.1-2.4-4.3-4.7-6.4-7.1c0.3-0.3,0.6-0.6,1-0.8c2.6,1.9,4.4,4.5,6.4,7.1
			C94.2,62,93.9,62.2,93.5,62.4z"/>
		<path class="st11" d="M148.8,66.7c0.3,0.3,0.6,0.6,0.9,0.9c-2.3,2.1-4.5,4.1-6.8,6.2c-0.3-0.4-0.7-0.7-1-1.1
			C144.2,70.6,146.5,68.7,148.8,66.7z"/>
		<path class="st9" d="M93.5,62.4c0.3-0.3,0.6-0.6,0.9-0.9c1.5,1.7,3,3.4,4.5,5.1c0.3,0.8-0.1,1-0.8,0.9
			C96.5,65.8,95,64.1,93.5,62.4z"/>
		<path class="st10" d="M98,67.5c0.3-0.3,0.6-0.6,0.8-0.9c1.7,1.7,3.7,3.3,4.6,6.6C100.8,71.3,99.4,69.4,98,67.5z"/>
	</g>
</g>
</svg>
